<svg width="48" height="48" viewBox="0 0 48 48" fill="none" xmlns="http://www.w3.org/2000/svg">
<path d="M10.5003 24.1999C10.5003 23.7892 10.6583 23.3954 10.9396 23.105C11.2209 22.8146 11.6025 22.6515 12.0003 22.6515L32.3853 22.6515L30.4353 20.6541C30.1528 20.3625 29.9941 19.9671 29.9941 19.5547C29.9941 19.1424 30.1528 18.7469 30.4353 18.4554C30.7177 18.1638 31.1008 18 31.5003 18C31.8997 18 32.2828 18.1638 32.5653 18.4554L37.0653 23.1005C37.2734 23.3183 37.4144 23.5948 37.4705 23.8951C37.5265 24.1955 37.4951 24.5063 37.3803 24.7883C37.2677 25.071 37.0767 25.3131 36.8311 25.4839C36.5855 25.6548 36.2964 25.7467 36.0003 25.7483L12.0003 25.7483C11.6025 25.7483 11.2209 25.5851 10.9396 25.2948C10.6583 25.0044 10.5003 24.6105 10.5003 24.1999Z" fill="#FBFBFB"/>
<path d="M29.9997 28.8454C29.9986 28.6416 30.0364 28.4396 30.1111 28.251C30.1857 28.0623 30.2957 27.8907 30.4347 27.746L34.9347 23.1009C35.2172 22.8093 35.6003 22.6455 35.9997 22.6455C36.1975 22.6455 36.3934 22.6857 36.5761 22.7639C36.7588 22.842 36.9249 22.9565 37.0647 23.1009C37.2046 23.2452 37.3155 23.4166 37.3912 23.6053C37.4669 23.7939 37.5059 23.9961 37.5059 24.2002C37.5059 24.6126 37.3472 25.008 37.0647 25.2996L32.5647 29.9447C32.4253 30.0899 32.2594 30.2051 32.0766 30.2837C31.8938 30.3623 31.6977 30.4028 31.4997 30.4028C31.3017 30.4028 31.1056 30.3623 30.9229 30.2837C30.7401 30.2051 30.5742 30.0899 30.4347 29.9447C30.2957 29.8001 30.1857 29.6285 30.1111 29.4398C30.0364 29.2512 29.9986 29.0492 29.9997 28.8454Z" fill="#FBFBFB"/>
</svg>
